<?xml version="1.0" encoding="UTF-8" standalone="no"?>
<!-- Created with Inkscape (http://www.inkscape.org/) -->

<svg
   xmlns:dc="http://purl.org/dc/elements/1.1/"
   xmlns:cc="http://creativecommons.org/ns#"
   xmlns:rdf="http://www.w3.org/1999/02/22-rdf-syntax-ns#"
   xmlns:svg="http://www.w3.org/2000/svg"
   xmlns="http://www.w3.org/2000/svg"
   xmlns:sodipodi="http://sodipodi.sourceforge.net/DTD/sodipodi-0.dtd"
   xmlns:inkscape="http://www.inkscape.org/namespaces/inkscape"
   version="1.1"
   id="svg6505"
   xml:space="preserve"
   width="800"
   height="800"
   viewBox="0 0 800 800"
   sodipodi:docname="crown-silhouette-publicdomainvectors.org.svg"
   inkscape:version="0.92.4 (5da689c313, 2019-01-14)"><metadata
     id="metadata6511"><rdf:RDF><cc:Work
         rdf:about=""><dc:format>image/svg+xml</dc:format><dc:type
           rdf:resource="http://purl.org/dc/dcmitype/StillImage" /><dc:title></dc:title></cc:Work></rdf:RDF></metadata><defs
     id="defs6509"><clipPath
       clipPathUnits="userSpaceOnUse"
       id="clipPath6521"><path
         d="M 0,600 H 600 V 0 H 0 Z"
         id="path6519"
         inkscape:connector-curvature="0" /></clipPath></defs><sodipodi:namedview
     pagecolor="#ffffff"
     bordercolor="#666666"
     borderopacity="1"
     objecttolerance="10"
     gridtolerance="10"
     guidetolerance="10"
     inkscape:pageopacity="0"
     inkscape:pageshadow="2"
     inkscape:window-width="1920"
     inkscape:window-height="1018"
     id="namedview6507"
     showgrid="false"
     inkscape:zoom="0.92079044"
     inkscape:cx="411.86441"
     inkscape:cy="393.22034"
     inkscape:window-x="-8"
     inkscape:window-y="-8"
     inkscape:window-maximized="1"
     inkscape:current-layer="g6513" /><g
     id="g6513"
     inkscape:groupmode="layer"
     inkscape:label="crown-silhouette-publicdomainvectors.org"
     transform="matrix(1.3333333,0,0,-1.3333333,0,800)"><g
       id="g6515"><g
         id="g6517"
         clip-path="url(#clipPath6521)"><path
           d="m 489.182,326.185 c 8.51,10.465 17.164,20.866 25.955,31.204 6,-12.17 11.853,-24.369 17.556,-36.597 -14.484,1.984 -28.99,3.784 -43.511,5.393 m -104.461,8.353 c 7.844,10.968 15.832,21.881 23.964,32.738 6.725,-11.778 13.303,-23.595 19.734,-35.447 -14.557,1.09 -29.124,1.994 -43.698,2.709 m -98.149,2 c 7.199,11.4 14.54,22.755 22.03,34.061 7.389,-11.373 14.633,-22.791 21.731,-34.255 -14.586,0.252 -29.175,0.316 -43.761,0.194 m -111.185,-4.555 c 6.444,11.845 13.037,23.654 19.777,35.424 8.117,-10.868 16.091,-21.79 23.922,-32.766 -14.574,-0.7 -29.144,-1.586 -43.699,-2.658 M 71.102,321.073 c 5.718,12.22 11.586,24.412 17.601,36.574 8.779,-10.346 17.418,-20.758 25.916,-31.234 -14.522,-1.593 -29.03,-3.372 -43.517,-5.34 m 507.105,155.32 c -8.272,1.242 -15.756,-3.304 -16.705,-10.069 -0.658,-4.659 1.912,-9.15 6.22,-11.896 -38.783,-42.468 -75.185,-86.136 -109.16,-130.813 -6.217,27.079 -16.441,53.562 -23.471,80.573 -5.979,22.969 -8.653,46.477 -15.222,69.384 6.701,1.464 11.809,6.288 12.243,12.385 0.558,7.687 -6.633,14.474 -16.076,15.053 -9.435,0.582 -17.401,-5.273 -17.792,-12.97 -0.343,-6.697 5.069,-12.576 12.568,-14.373 -9.267,-21.654 -13.751,-45.139 -22.449,-66.923 -10.288,-25.971 -24.674,-50.266 -34.16,-76.401 -7.834,26.563 -19.991,53.239 -28.631,79.686 -7.077,21.656 -10.503,43.105 -18.119,64.673 8.328,1.942 14.52,8.214 14.614,15.765 0.123,9.119 -8.855,16.636 -20.056,16.641 -11.201,0.008 -20.19,-7.497 -20.077,-16.616 0.085,-7.588 6.33,-13.89 14.716,-15.81 -7.629,-21.433 -12.17,-43.495 -19.265,-65.019 -8.677,-26.553 -19.767,-52.59 -27.632,-79.262 -9.449,26.037 -24.06,50.958 -34.307,76.829 -8.71,21.981 -12.944,44.935 -22.227,66.783 6.988,2.051 11.933,7.693 11.608,14.096 -0.384,7.698 -8.349,13.558 -17.791,12.984 -9.433,-0.573 -16.631,-7.356 -16.079,-15.042 0.452,-6.393 6.038,-11.392 13.213,-12.586 -6.567,-22.698 -8.491,-48.83 -14.479,-71.59 -7.059,-27.118 -18.062,-50.875 -24.303,-78.06 -34.152,45.01 -70.768,89.002 -109.796,131.779 3.331,2.76 5.212,6.677 4.64,10.729 -0.95,6.766 -8.43,11.312 -16.702,10.07 -8.275,-1.242 -14.1,-7.784 -13.021,-14.531 1.079,-6.752 8.55,-11.168 16.694,-9.947 1.207,0.181 2.353,0.488 3.443,0.881 17.485,-43.92 30.358,-88.732 37.626,-134.618 0.007,-0.058 0.018,-0.115 0.027,-0.173 0.011,0.101 0.021,0.202 0.033,0.303 0.315,-1.126 0.631,-2.252 0.948,-3.378 17.109,2.349 34.245,4.437 51.402,6.265 0.026,0.002 0.05,0.004 0.077,0.007 8.151,0.867 16.309,1.675 24.471,2.424 0.168,0.017 0.337,0.032 0.508,0.048 7.68,0.703 15.366,1.354 23.055,1.951 0.529,0.042 1.056,0.083 1.585,0.124 9.066,0.697 18.135,1.319 27.209,1.872 9.071,0.552 18.148,1.031 27.225,1.436 0.319,0.015 0.637,0.029 0.956,0.043 7.913,0.349 15.826,0.643 23.742,0.883 0.169,0.004 0.341,0.009 0.51,0.015 10.14,0.302 20.283,0.516 30.426,0.637 l 0.726,0.008 c 6.933,0.081 13.868,0.119 20.801,0.114 11.238,-0.007 22.474,-0.126 33.711,-0.357 0.581,-0.011 1.163,-0.023 1.742,-0.035 5.504,-0.119 11.006,-0.263 16.507,-0.435 0.171,-0.005 0.344,-0.01 0.516,-0.016 7.43,-0.234 14.86,-0.517 22.286,-0.848 0.752,-0.033 1.502,-0.067 2.253,-0.103 9.128,-0.418 18.252,-0.911 27.371,-1.477 9.026,-0.561 18.047,-1.193 27.064,-1.898 0.143,-0.011 0.286,-0.022 0.428,-0.034 8.123,-0.635 16.241,-1.331 24.356,-2.085 0.173,-0.015 0.344,-0.031 0.515,-0.047 7.962,-0.741 15.922,-1.539 23.875,-2.394 0.173,-0.018 0.343,-0.038 0.516,-0.055 17.923,-1.93 35.823,-4.145 53.694,-6.646 0.168,-0.024 0.337,-0.047 0.506,-0.071 6.915,48.47 19.388,94.118 34.541,138.467 0.868,-0.27 1.755,-0.577 2.693,-0.717 8.143,-1.221 15.608,3.15 16.687,9.902 1.079,6.746 -4.754,13.243 -13.027,14.485 M 476.976,174.622 c -0.841,0.635 -1.596,1.023 -2.325,1.478 -1.351,0.767 -2.641,1.368 -3.893,1.914 -1,0.435 -1.978,0.877 -2.96,1.257 3.08,4.957 6.185,9.906 9.314,14.843 3.816,-0.427 7.63,-0.87 11.443,-1.324 -3.898,-6.042 -7.757,-12.099 -11.579,-18.168 m -13.214,6.109 c -0.13,0.046 -0.269,0.033 -0.4,0.077 -3.59,1.206 -7.201,2.285 -10.836,3.234 2.175,4.001 4.366,7.996 6.57,11.986 4.445,-0.446 8.89,-0.912 13.334,-1.395 -2.911,-4.627 -5.801,-9.26 -8.668,-13.902 m -27.406,7.021 c 1.557,3.33 3.121,6.658 4.694,9.985 4.486,-0.398 8.971,-0.816 13.456,-1.254 -2.074,-3.773 -4.134,-7.551 -6.184,-11.332 -3.955,0.949 -7.947,1.771 -11.966,2.601 m -16.688,3.085 c 1.097,2.802 2.197,5.602 3.304,8.404 4.524,-0.351 9.048,-0.72 13.571,-1.108 -1.489,-3.166 -2.97,-6.332 -4.444,-9.501 -4.112,0.782 -8.258,1.497 -12.431,2.205 m -4.263,0.728 c -4.237,0.686 -8.487,1.317 -12.776,1.915 0.742,2.354 1.486,4.706 2.234,7.058 4.561,-0.301 9.117,-0.62 13.674,-0.959 -1.047,-2.671 -2.092,-5.342 -3.132,-8.014 m -17.037,2.498 c -4.341,0.574 -8.696,1.081 -13.085,1.557 0.482,2.003 0.964,4.005 1.449,6.008 4.589,-0.25 9.177,-0.519 13.764,-0.808 -0.712,-2.252 -1.422,-4.504 -2.128,-6.757 m -17.342,1.977 c -3.409,0.343 -6.817,0.625 -10.252,0.902 -1.021,0.083 -2.05,0.225 -3.073,0.305 0.291,1.754 0.582,3.509 0.875,5.263 4.613,-0.197 9.226,-0.416 13.837,-0.654 -0.463,-1.938 -0.926,-3.877 -1.387,-5.816 m -17.566,1.564 c -4.485,0.337 -8.981,0.611 -13.494,0.876 0.144,1.568 0.288,3.137 0.432,4.705 4.634,-0.147 9.266,-0.312 13.898,-0.497 -0.279,-1.695 -0.56,-3.39 -0.836,-5.084 m -17.728,1.145 c -4.526,0.245 -9.06,0.423 -13.604,0.595 0.025,1.434 0.048,2.871 0.072,4.304 4.647,-0.09 9.293,-0.203 13.939,-0.336 -0.137,-1.521 -0.272,-3.041 -0.407,-4.563 m -17.844,0.776 c -4.552,0.149 -9.107,0.23 -13.666,0.308 -0.079,1.356 -0.159,2.715 -0.239,4.072 4.654,-0.039 9.309,-0.098 13.963,-0.177 -0.019,-1.401 -0.041,-2.801 -0.058,-4.203 m -22.394,0.367 c -3.066,-0.008 -6.13,0.019 -9.195,-0.018 -0.184,1.359 -0.365,2.719 -0.551,4.078 4.657,0.015 9.315,0.009 13.972,-0.017 0.083,-1.346 0.165,-2.694 0.247,-4.038 -1.491,0.021 -2.983,-0.015 -4.473,-0.005 m -27.078,-0.416 c -0.305,1.438 -0.612,2.875 -0.919,4.311 4.654,0.068 9.308,0.117 13.961,0.144 0.19,-1.361 0.379,-2.72 0.567,-4.08 -4.545,-0.077 -9.078,-0.228 -13.609,-0.375 m -17.809,-0.763 c -0.457,1.568 -0.917,3.133 -1.378,4.699 4.646,0.121 9.289,0.224 13.935,0.306 0.315,-1.45 0.631,-2.902 0.946,-4.35 -4.512,-0.17 -9.01,-0.414 -13.503,-0.655 m -17.683,-1.133 c -0.656,1.747 -1.312,3.496 -1.971,5.244 4.627,0.176 9.254,0.33 13.882,0.466 0.476,-1.593 0.95,-3.184 1.423,-4.775 -4.463,-0.264 -8.902,-0.602 -13.334,-0.935 m -17.504,-1.538 c -0.916,1.995 -1.835,3.991 -2.756,5.983 4.604,0.229 9.21,0.436 13.816,0.623 0.685,-1.793 1.369,-3.585 2.05,-5.38 -4.39,-0.348 -8.762,-0.777 -13.11,-1.226 m -17.211,-2.031 c -1.278,2.336 -2.56,4.67 -3.847,7.003 4.575,0.278 9.152,0.539 13.731,0.779 0.968,-2.07 1.933,-4.136 2.894,-6.207 -4.279,-0.475 -8.546,-1.011 -12.778,-1.575 m -16.842,-2.509 c -1.764,2.765 -3.536,5.525 -5.317,8.286 4.543,0.331 9.085,0.643 13.63,0.933 1.36,-2.439 2.714,-4.876 4.065,-7.318 -4.15,-0.589 -8.283,-1.234 -12.378,-1.901 m -13.997,-2.506 c -0.811,-0.157 -1.618,-0.26 -2.425,-0.419 -2.391,3.263 -4.796,6.521 -7.214,9.772 4.501,0.38 9.003,0.741 13.508,1.082 1.884,-2.896 3.757,-5.797 5.62,-8.701 -3.173,-0.542 -6.353,-1.144 -9.489,-1.734 m -18.212,-3.92 c -3.23,3.882 -6.481,7.755 -9.756,11.618 4.455,0.428 8.913,0.837 13.373,1.228 2.557,-3.405 5.098,-6.817 7.627,-10.234 -3.777,-0.786 -7.522,-1.676 -11.244,-2.612 m -11.619,-3.369 c -1.029,-0.337 -2.068,-0.638 -3.1,-1.01 -4.419,4.728 -8.876,9.437 -13.367,14.125 4.402,0.476 8.809,0.934 13.215,1.37 3.482,-4.079 6.94,-8.172 10.374,-12.275 -2.387,-0.66 -4.757,-1.43 -7.122,-2.21 m -7.408,-2.762 c -1.252,-0.543 -2.546,-1.149 -3.901,-1.907 -1.07,-0.704 -1.979,-1.007 -3.32,-2.244 -5.575,6.141 -11.211,12.25 -16.907,18.33 3.259,0.383 6.517,0.757 9.777,1.119 4.864,-5.04 9.685,-10.103 14.462,-15.187 -0.039,-0.019 -0.073,-0.095 -0.111,-0.111 m 356.713,31.96 c -129.498,15.968 -260.462,16.05 -389.974,0.243 -4.886,-0.596 -8.219,-5.924 -7.619,-10.58 0.379,-2.956 2.351,-5.792 4.949,-7.222 8.573,-8.999 17.015,-18.07 25.322,-27.202 0.02,-0.216 0.044,-0.307 0.068,-0.104 0.021,-0.029 0.042,-0.059 0.064,-0.09 0.976,-3.302 2.587,-4.237 3.796,-5.217 2.139,-1.299 3.729,-1.749 5.15,-2.142 2.88,-0.767 5.313,-1.049 7.794,-1.363 19.244,-1.804 36.398,-0.976 52.516,-0.71 32.055,0.853 58.607,2.262 77.226,3.185 9.305,0.422 16.619,0.943 21.602,1.205 4.982,0.297 7.644,0.437 7.644,0.437 -0.001,-0.017 -10.617,0.788 -29.247,1.719 -16.284,0.854 -38.702,1.762 -65.433,2.746 -3.819,0.139 -7.725,0.282 -11.715,0.425 -7.974,0.313 -16.28,0.669 -24.83,1.194 -6.566,0.428 -13.386,0.803 -20.087,1.554 8.227,2.118 17.013,3.858 25.972,5.325 2.459,0.403 4.935,0.786 7.423,1.15 17.426,2.547 35.573,4.167 53.979,5.507 21.054,1.465 42.532,2.093 64,1.937 21.475,0.012 42.939,-0.729 63.99,-2.321 2.629,-0.21 5.253,-0.427 7.868,-0.648 18.312,-1.558 36.3,-3.449 53.498,-6.381 8.903,-1.5 17.629,-3.3 25.805,-5.449 -6.66,-0.705 -13.433,-1.041 -19.959,-1.417 -8.55,-0.476 -16.863,-0.783 -24.839,-1.053 -31.922,-0.961 -58.552,-1.86 -77.169,-2.727 -18.64,-0.831 -29.254,-1.577 -29.256,-1.561 0,-0.003 2.659,-0.158 7.641,-0.489 4.984,-0.29 12.292,-0.853 21.593,-1.335 18.614,-1.036 45.16,-2.612 77.212,-3.653 16.119,-0.368 33.267,-1.285 52.53,0.403 2.481,0.3 4.916,0.561 7.803,1.313 1.425,0.386 3.023,0.821 5.174,2.113 0.681,0.39 2.102,1.713 2.776,2.838 0.191,0.299 0.369,0.6 0.525,0.894 0.036,0.081 0.07,0.161 0.104,0.24 0.061,0.132 0.121,0.266 0.181,0.399 -0.295,-1.125 0.33,1.071 0.469,1.832 5.651,8.917 11.381,17.805 17.194,26.66 3.031,1.263 5.439,4.477 5.865,7.756 0.605,4.653 -2.721,9.988 -7.605,10.589 m 50.814,87.108 c -0.692,-4.644 -5.42,-8.054 -10.516,-7.329 -156.038,22.182 -314.419,22.279 -470.478,0.292 -5.099,-0.718 -9.822,2.697 -10.508,7.343 -0.686,4.644 2.902,9.282 8.063,10.009 157.686,22.216 317.722,22.117 475.387,-0.296 5.163,-0.733 8.744,-5.376 8.052,-10.019 M 310.96,263.214 c -0.003,-0.488 -0.033,-0.971 -0.088,-1.447 -0.824,-7.134 -7.247,-12.669 -14.995,-12.696 -4.134,-0.011 -7.9,1.546 -10.646,4.084 -2.746,2.537 -4.471,6.056 -4.526,9.967 -0.007,0.488 0.013,0.971 0.06,1.447 0.682,7.153 7.113,12.813 15.024,12.834 1.055,0.004 2.084,-0.092 3.078,-0.281 6.951,-1.312 12.148,-7.064 12.093,-13.908 m 38.193,13.419 c 0.514,0.033 1.036,0.041 1.564,0.025 8.432,-0.252 15.015,-6.87 14.692,-14.685 -0.321,-7.814 -7.287,-13.882 -15.548,-13.633 -1.549,0.048 -3.04,0.314 -4.438,0.765 -6.058,1.961 -10.38,7.427 -10.258,13.781 0.141,7.332 6.272,13.246 13.988,13.747 m 45.172,-6.285 c 2.924,2.549 6.929,4.015 11.278,3.739 4.212,-0.268 7.909,-2.109 10.479,-4.859 0.321,-0.345 0.626,-0.703 0.91,-1.073 1.994,-2.596 3.07,-5.823 2.815,-9.236 -0.11,-1.463 -0.45,-2.856 -0.987,-4.151 -2.32,-5.612 -8.31,-9.382 -15.014,-8.956 -8.255,0.525 -14.62,7.217 -14.209,15.027 0.199,3.779 1.988,7.12 4.728,9.509 m 49.63,-13.368 c 0.586,6.819 6.3,12.059 13.353,12.714 1.008,0.095 2.043,0.095 3.093,-0.007 5.309,-0.515 9.707,-3.517 12.021,-7.615 1.349,-2.389 1.992,-5.153 1.682,-8.018 -0.84,-7.776 -8.206,-13.365 -16.44,-12.569 -8.238,0.803 -14.38,7.704 -13.709,15.495 m -200.532,-8.844 c -0.501,-0.066 -1.011,-0.109 -1.528,-0.128 -8.263,-0.3 -15.264,5.724 -15.633,13.537 -0.37,7.812 6.169,14.471 14.604,14.776 8.432,0.307 15.44,-5.858 15.637,-13.676 0.189,-7.329 -5.555,-13.515 -13.08,-14.509 m -45.134,1.857 c -2.556,-2.73 -6.201,-4.557 -10.326,-4.847 -8.252,-0.574 -15.453,5.216 -16.083,13.01 -0.512,6.334 3.564,12.059 9.628,14.297 1.399,0.517 2.905,0.848 4.484,0.958 8.422,0.588 15.633,-5.341 16.091,-13.148 0.229,-3.904 -1.238,-7.538 -3.794,-10.27 m -64.164,-9.503 c -8.233,-0.848 -15.628,4.696 -16.518,12.464 -0.889,7.772 5.202,14.852 13.607,15.718 8.404,0.87 15.811,-4.816 16.53,-12.604 0.718,-7.788 -5.386,-14.726 -13.619,-15.578 m -66.646,42.35 c 3.251,-6.101 6.475,-12.21 9.673,-18.329 2.808,-0.164 5.537,-1.004 7.78,-2.594 3.196,-2.262 5.23,-5.659 5.71,-9.37 0.427,-3.322 -0.379,-7.028 -2.332,-9.867 4.15,-8.205 8.253,-16.424 12.308,-24.658 133.635,16.813 268.86,16.728 402.478,-0.25 4.065,8.228 8.179,16.442 12.341,24.641 -1.955,2.84 -2.776,6.392 -2.342,9.715 0.003,0.023 0.009,0.046 0.012,0.069 0.5,3.682 2.537,7.127 5.719,9.371 2.246,1.586 4.983,2.464 7.789,2.625 0.008,0.011 0.013,0.026 0.02,0.036 3.201,6.116 6.429,12.222 9.683,18.319 -155.493,22.104 -313.324,22.201 -468.839,0.292"
           style="fill:#000000;fill-opacity:1;fill-rule:nonzero;stroke:none"
           id="path6523"
           inkscape:connector-curvature="0" /></g></g></g></svg>